<?xml version="1.0" encoding="UTF-8"?>
<svg xmlns="http://www.w3.org/2000/svg" viewBox="0 0 421 437.18">
  <defs>
    <style>
      .cls-1 {
        fill: #d5393a;
      }

      .cls-1, .cls-2, .cls-3, .cls-4, .cls-5 {
        stroke-width: 0px;
      }

      .cls-2 {
        fill: #fff;
        opacity: .33;
      }

      .cls-6 {
        stroke: #eeede4;
        stroke-width: 56px;
      }

      .cls-6, .cls-7 {
        stroke-miterlimit: 10;
      }

      .cls-6, .cls-3 {
        fill: #eeede4;
      }

      .cls-7 {
        stroke: #0c354c;
      }

      .cls-7, .cls-8, .cls-9, .cls-5 {
        fill: #0c354c;
      }

      .cls-8 {
        font-family: Lato-Bold, Lato;
        font-size: 25.64px;
      }

      .cls-8, .cls-9 {
        font-weight: 700;
      }

      .cls-4 {
        fill: #0f384f;
      }

      .cls-9 {
        font-family: Caladea-Bold, Caladea;
        font-size: 48px;
      }
    </style>
  </defs>
  <g id="Layer_4" data-name="Layer 4">
    <g>
      <circle class="cls-6" cx="210.5" cy="210.5" r="182.5"/>
      <g>
        <g>
          <g>
            <circle class="cls-3" cx="210.5" cy="210.5" r="186.5"/>
            <path class="cls-5" d="m210.5,28c100.79,0,182.5,81.71,182.5,182.5s-81.71,182.5-182.5,182.5S28,311.29,28,210.5,109.71,28,210.5,28m0-8c-25.71,0-50.66,5.04-74.15,14.97-22.69,9.6-43.06,23.33-60.55,40.82-17.49,17.49-31.23,37.86-40.82,60.55-9.94,23.49-14.97,48.44-14.97,74.15s5.04,50.66,14.97,74.15c9.6,22.69,23.33,43.06,40.82,60.55,17.49,17.49,37.86,31.23,60.55,40.82,23.49,9.94,48.44,14.97,74.15,14.97s50.66-5.04,74.15-14.97c22.69-9.6,43.06-23.33,60.55-40.82,17.49-17.49,31.23-37.86,40.82-60.55,9.94-23.49,14.97-48.44,14.97-74.15s-5.04-50.66-14.97-74.15c-9.6-22.69-23.33-43.06-40.82-60.55-17.49-17.49-37.86-31.23-60.55-40.82-23.49-9.94-48.44-14.97-74.15-14.97h0Z"/>
          </g>
          <g>
            <g>
              <polygon class="cls-2" points="203.39 106.85 198.33 106.84 198.32 146.19 164.68 123.88 158.61 131.07 185.6 148.97 174.37 148.99 154.58 135.83 152.49 138.31 168.59 148.97 140.44 148.96 140.44 155.81 203.39 155.78 203.39 106.85"/>
              <polygon class="cls-2" points="141.86 175.92 140.45 166.45 140.46 182.46 168.86 182.47 149.31 195.43 154.96 202.83 185.58 182.54 196.94 182.5 160.6 206.71 155.68 203.76 160.65 210.26 198.3 185.27 198.29 226.18 203.39 226.2 203.39 175.92 141.86 175.92"/>
              <polygon class="cls-2" points="281.39 155.75 281.55 158.11 281.43 149.02 252.93 149.01 268.84 138.45 262.45 131.52 236.26 148.97 224.81 149.01 258.13 126.83 256.12 124.63 223.55 146.22 223.56 106.88 218.58 106.88 218.57 155.78 281.39 155.75"/>
              <polygon class="cls-2" points="281.8 175.92 218.57 175.92 218.56 226.23 223.54 226.24 223.55 185.35 259.79 209.34 267.26 198.37 264.56 201.39 236.18 182.54 247.58 182.54 268.56 196.46 270.29 193.92 253.06 182.49 281.9 182.5 281.8 175.92"/>
              <polygon class="cls-2" points="218.58 106.73 203.39 106.73 203.39 106.85 218.58 106.88 218.58 106.73"/>
              <polygon class="cls-2" points="203.39 229.92 218.56 230.56 218.56 226.23 203.39 226.2 203.39 229.92"/>
              <polygon class="cls-2" points="138.86 155.81 140.45 166.45 140.44 155.81 138.86 155.81"/>
              <polygon class="cls-2" points="282.79 175.92 281.55 158.11 281.8 175.92 282.79 175.92"/>
              <polygon class="cls-2" points="154.56 203.1 155.68 203.76 154.96 202.83 154.56 203.1"/>
              <polygon class="cls-2" points="268.81 196.63 268.56 196.46 267.26 198.37 268.81 196.63"/>
              <polygon class="cls-2" points="263.15 131.05 260.6 125.18 258.13 126.83 262.45 131.52 263.15 131.05"/>
              <polygon class="cls-2" points="154.35 128.24 153.41 135.05 154.58 135.83 158.61 131.07 154.35 128.24"/>
            </g>
            <path class="cls-7" d="m152.45,207.71c-.33-.37,7.26,8.67,16.4,14.11,5.63,3.35,10.33,5.08,13.62,6.3,5.62,2.08,15.83,5.15,20.6,5.28.33,0,1.09.19,1.66.81,1.69,1.84,1.16,6.21,1.06,10.17-.21,8.85.04,10.21.09,10.38.18.74,1.23.96,1.96.6,8.4-4.23,23.33-19.25,27.91-25.19.72-.94,2.68-.49,6.83-2.34,10.81-4.82,13.36-7.15,18.7-11.62,6.1-5.1,9.19-8.17,12.26-12.26,4.12-5.5,6.33-12.46,7.32-15.83,0,0,.19-.64,1.87-6.47h0c-1.4.9-3.39,2.41-5.11,4.77-2.37,3.25-2.8,6.16-3.57,8.51-1.35,4.12-4.19,6.83-9.87,12.26-8.84,8.45-17.58,12.89-19.74,13.96-11.64,5.75-21.76,7.12-25.02,7.49-5.97.68-17.94,1.9-30.98-3.06-2.15-.82-11.42-5.48-29.96-14.81-3.05-1.53-5.65-2.63-6.02-3.04Z"/>
            <path class="cls-7" d="m302.9,296.47c-.07.6-1.07,1.23-1.32.99-14.89-4-50.83-3.77-73.91,9.05-2.71,1.51-5.1,3.93-7.49,6.49-3.23.09-5.91.02-9.15.11.11-3.41-.07-5.83.04-9.24,4.38-7.37,14.41-21.16,34.8-27.89,12.44-4.11,18.67-4.69,41.24-4.4-4.37-7.24-9.37-14.85-13.74-22.09-5.71-.39-23.32,1.92-34.55,8-21.15,11.46-26.14,29.68-27.32,34.1-.06-5.71.06-9.23,0-14.93,1.35-2.97,3.1-6.55,6.86-10.83,10.6-12.06,22.18-16.12,28.12-17.96,10.36-3.21,12.13-3.36,16.85-4.19.26-.04,10.11-1.27,11.65-1.34.44-.02,1.47.04,1.82.42,10.94,17.52,18.26,30.11,19.21,32.04.21.43.64.99.38,2.17-.18.85-.65,1.18-1.31,1.12-16.05-1.59-26.37-.66-34.85.79-10.21,1.76-15.86,4.44-19.79,6.1-9.36,3.95-18.22,14.04-21.66,18.48,4.5-3.61,14.07-9.4,22.85-12.78,8.9-3.42,10.8-3.43,25.12-5.4,0,0,19.64-2,32.07.64,1.06.22,3.89.62,4.17,2.72.42,3.23.17,5.79-.09,7.83Z"/>
            <path class="cls-7" d="m211.01,313.11c-3.24-.09-5.92-.02-9.15-.11-2.4-2.56-4.78-4.98-7.49-6.49-23.09-12.82-59.02-13.05-73.91-9.05-.26.24-1.25-.39-1.33-.99-.25-2.04-.51-4.6-.08-7.83.27-2.1,3.11-2.5,4.17-2.72,12.42-2.64,32.06-.64,32.06-.64,14.32,1.97,16.23,1.98,25.13,5.4,8.78,3.38,18.35,9.17,22.85,12.78-3.45-4.44-12.3-14.53-21.66-18.48-3.94-1.66-9.59-4.34-19.8-6.1-8.47-1.45-18.8-2.38-34.85-.79-.66.06-1.12-.27-1.31-1.12-.25-1.18.17-1.74.39-2.17.95-1.93,8.26-14.52,19.21-32.04.34-.38,1.38-.44,1.82-.42,1.53.07,11.39,1.3,11.65,1.34,4.72.83,6.48.98,16.85,4.19,5.93,1.84,17.52,5.9,28.12,17.96,3.75,4.28,5.51,7.86,6.86,10.83-.06,5.7.05,9.22,0,14.93-1.19-4.42-6.17-22.64-27.32-34.1-11.24-6.08-28.84-8.39-34.56-8-4.36,7.24-9.36,14.85-13.73,22.09,22.56-.29,28.79.29,41.23,4.4,20.4,6.73,30.43,20.52,34.8,27.89.12,3.41-.07,5.83.05,9.24Z"/>
            <polygon class="cls-1" points="282.77 175.93 218.55 175.93 218.54 230.57 203.37 229.93 203.37 175.93 141.84 175.93 138.84 155.82 203.37 155.79 203.37 106.74 218.58 106.73 218.55 155.79 281.37 155.76 282.77 175.93"/>
            <g>
              <polygon class="cls-1" points="160.6 206.71 196.94 182.5 185.58 182.54 154.55 203.1 160.6 206.71"/>
              <polyline class="cls-1" points="264.57 201.39 236.19 182.54 247.59 182.54 268.83 196.63"/>
              <polyline class="cls-1" points="263.13 131.07 236.24 148.98 224.79 149.03 260.58 125.2"/>
              <path class="cls-1" d="m153.43,135.05l20.96,13.94,11.23-.02-31.26-20.72"/>
            </g>
            <g>
              <polyline class="cls-4" points="152.43 138.27 168.59 148.94 145.6 149.01"/>
              <polyline class="cls-4" points="268.1 138.95 252.93 149.01 274.09 149.03 272.39 141.48"/>
              <polyline class="cls-4" points="270.29 193.92 253.06 182.49 275.79 182.5"/>
              <polyline class="cls-4" points="145.24 182.48 168.86 182.47 149.81 195.12"/>
              <polyline class="cls-4" points="198.28 185.28 198.3 225.99 160.65 210.26"/>
              <polygon class="cls-4" points="223.55 185.35 223.54 226.76 259.77 209.31 223.55 185.35"/>
              <polyline class="cls-4" points="223.55 146.22 223.56 107.58 256.11 124.64"/>
              <polyline class="cls-4" points="198.3 146.18 198.35 107.09 164.68 123.89"/>
            </g>
            <path class="cls-5" d="m210.22,110.94c37,0,67,25.3,67,56.5s-30,56.5-67,56.5-67-25.3-67-56.5,30-56.5,67-56.5m0-8c-19.78,0-38.44,6.55-52.53,18.43-14.49,12.22-22.47,28.58-22.47,46.07s7.98,33.85,22.47,46.07c14.1,11.89,32.75,18.43,52.53,18.43s38.44-6.55,52.53-18.43c14.49-12.22,22.47-28.58,22.47-46.07s-7.98-33.85-22.47-46.07c-14.1-11.89-32.75-18.43-52.53-18.43h0Z"/>
          </g>
          <text class="cls-9" transform="translate(82.54 203.76) rotate(-80.44)"><tspan x="0" y="0">P</tspan></text>
          <text class="cls-9" transform="translate(86.12 179.08) rotate(-68.84)"><tspan x="0" y="0">A</tspan></text>
          <text class="cls-9" transform="translate(95.83 153.09) rotate(-56.54)"><tspan x="0" y="0">V</tspan></text>
          <text class="cls-9" transform="translate(112.58 128.08) rotate(-43.96)"><tspan x="0" y="0">L</tspan></text>
          <text class="cls-9" transform="translate(131.22 109.69) rotate(-31.22)"><tspan x="0" y="0">A</tspan></text>
          <text class="cls-9" transform="translate(158.4 94.2) rotate(-21.8)"><tspan x="0" y="0"> </tspan></text>
          <text class="cls-9" transform="translate(167.88 89.26) rotate(-11.6)"><tspan x="0" y="0">H</tspan></text>
          <text class="cls-9" transform="translate(201.34 82.56) rotate(2.95)"><tspan x="0" y="0">A</tspan></text>
          <text class="cls-9" transform="translate(232.1 83.4) rotate(18.66)"><tspan x="0" y="0">M</tspan></text>
          <text class="cls-9" transform="translate(269.71 96.81) rotate(34.17)"><tspan x="0" y="0">P</tspan></text>
          <text class="cls-9" transform="translate(293.85 113.06) rotate(47.43)"><tspan x="0" y="0">T</tspan></text>
          <text class="cls-9" transform="translate(313.72 134.16) rotate(60.93)"><tspan x="0" y="0">O</tspan></text>
          <text class="cls-9" transform="translate(329.7 162.84) rotate(75.5)"><tspan x="0" y="0">N</tspan></text>
        </g>
        <text class="cls-8" transform="translate(65.13 272.92) rotate(64.12) skewX(-.11)"><tspan x="0" y="0">S</tspan></text>
        <text class="cls-8" transform="translate(72.47 288.11) rotate(57.01) skewX(.08)"><tspan x="0" y="0">O</tspan></text>
        <text class="cls-8" transform="translate(85.66 307.9) rotate(48.8) skewX(.19)"><tspan x="0" y="0">U</tspan></text>
        <text class="cls-8" transform="translate(100.33 324.34) rotate(40.77) skewX(.21)"><tspan x="0" y="0">D</tspan></text>
        <text class="cls-8" transform="translate(117.56 338.9) rotate(32.58) skewX(.23)"><tspan x="0" y="0">N</tspan></text>
        <text class="cls-8" transform="translate(136.39 350.42) rotate(26.8) skewX(.26)"><tspan x="0" y="0">Í</tspan></text>
        <text class="cls-8" transform="translate(144.67 354.52) rotate(23.72) skewX(.28)"><tspan x="0" y="0"> </tspan></text>
        <text class="cls-8" transform="translate(152.29 357.98) rotate(19) skewX(.31)"><tspan x="0" y="0">P</tspan></text>
        <text class="cls-8" transform="translate(169.86 363.87) rotate(12.23) skewX(.35)"><tspan x="0" y="0">Ř</tspan></text>
        <text class="cls-8" transform="translate(188.56 367.71) rotate(5.66) skewX(.36)"><tspan x="0" y="0">E</tspan></text>
        <text class="cls-8" transform="translate(205.87 369.34) rotate(-1.15) skewX(.33)"><tspan x="0" y="0">K</tspan></text>
        <text class="cls-8" transform="translate(225.99 368.66) rotate(-7.73) skewX(.26)"><tspan x="0" y="0">L</tspan></text>
        <text class="cls-8" transform="translate(241.78 366.48) rotate(-14.38) skewX(.15)"><tspan x="0" y="0">A</tspan></text>
        <text class="cls-8" transform="translate(261.86 361.17) rotate(-22.29) skewX(.02)"><tspan x="0" y="0">D</tspan></text>
        <text class="cls-8" transform="translate(281.73 352.7) rotate(-29.16) skewX(.63)"><tspan x="0" y="0">A</tspan></text>
        <text class="cls-8" transform="translate(299.58 342.3) rotate(-36.82) skewX(-.01)"><tspan x="0" y="0">T</tspan></text>
        <text class="cls-8" transform="translate(313.83 331.42) rotate(-43.26) skewX(-.1)"><tspan x="0" y="0">E</tspan></text>
        <text class="cls-8" transform="translate(326.2 319.56) rotate(-49.28) skewX(-.21)"><tspan x="0" y="0">L</tspan></text>
        <text class="cls-8" transform="translate(336.57 307.47) rotate(-55.88) skewX(-.3)"><tspan x="0" y="0">K</tspan></text>
        <text class="cls-8" transform="translate(347.87 290.47) rotate(-63.34) skewX(-.36)"><tspan x="0" y="0">A</tspan></text>
      </g>
    </g>
  </g>
  <g id="Layer_3" data-name="Layer 3">
    <g>
      <circle class="cls-6" cx="210.5" cy="210.5" r="182.5"/>
      <g>
        <g>
          <g>
            <circle class="cls-3" cx="210.5" cy="210.5" r="186.5"/>
            <path class="cls-5" d="m210.5,28c100.79,0,182.5,81.71,182.5,182.5s-81.71,182.5-182.5,182.5S28,311.29,28,210.5,109.71,28,210.5,28m0-8c-25.71,0-50.66,5.04-74.15,14.97-22.69,9.6-43.06,23.33-60.55,40.82-17.49,17.49-31.23,37.86-40.82,60.55-9.94,23.49-14.97,48.44-14.97,74.15s5.04,50.66,14.97,74.15c9.6,22.69,23.33,43.06,40.82,60.55,17.49,17.49,37.86,31.23,60.55,40.82,23.49,9.94,48.44,14.97,74.15,14.97s50.66-5.04,74.15-14.97c22.69-9.6,43.06-23.33,60.55-40.82,17.49-17.49,31.23-37.86,40.82-60.55,9.94-23.49,14.97-48.44,14.97-74.15s-5.04-50.66-14.97-74.15c-9.6-22.69-23.33-43.06-40.82-60.55-17.49-17.49-37.86-31.23-60.55-40.82-23.49-9.94-48.44-14.97-74.15-14.97h0Z"/>
          </g>
          <g>
            <g>
              <polygon class="cls-2" points="203.39 106.85 198.33 106.84 198.32 146.19 164.68 123.88 158.61 131.07 185.6 148.97 174.37 148.99 154.58 135.83 152.49 138.31 168.59 148.97 140.44 148.96 140.44 155.81 203.39 155.78 203.39 106.85"/>
              <polygon class="cls-2" points="141.86 175.92 140.45 166.45 140.46 182.46 168.86 182.47 149.31 195.43 154.96 202.83 185.58 182.54 196.94 182.5 160.6 206.71 155.68 203.76 160.65 210.26 198.3 185.27 198.29 226.18 203.39 226.2 203.39 175.92 141.86 175.92"/>
              <polygon class="cls-2" points="281.39 155.75 281.55 158.11 281.43 149.02 252.93 149.01 268.84 138.45 262.45 131.52 236.26 148.97 224.81 149.01 258.13 126.83 256.12 124.63 223.55 146.22 223.56 106.88 218.58 106.88 218.57 155.78 281.39 155.75"/>
              <polygon class="cls-2" points="281.8 175.92 218.57 175.92 218.56 226.23 223.54 226.24 223.55 185.35 259.79 209.34 267.26 198.37 264.56 201.39 236.18 182.54 247.58 182.54 268.56 196.46 270.29 193.92 253.06 182.49 281.9 182.5 281.8 175.92"/>
              <polygon class="cls-2" points="218.58 106.73 203.39 106.73 203.39 106.85 218.58 106.88 218.58 106.73"/>
              <polygon class="cls-2" points="203.39 229.92 218.56 230.56 218.56 226.23 203.39 226.2 203.39 229.92"/>
              <polygon class="cls-2" points="138.86 155.81 140.45 166.45 140.44 155.81 138.86 155.81"/>
              <polygon class="cls-2" points="282.79 175.92 281.55 158.11 281.8 175.92 282.79 175.92"/>
              <polygon class="cls-2" points="154.56 203.1 155.68 203.76 154.96 202.83 154.56 203.1"/>
              <polygon class="cls-2" points="268.81 196.63 268.56 196.46 267.26 198.37 268.81 196.63"/>
              <polygon class="cls-2" points="263.15 131.05 260.6 125.18 258.13 126.83 262.45 131.52 263.15 131.05"/>
              <polygon class="cls-2" points="154.35 128.24 153.41 135.05 154.58 135.83 158.61 131.07 154.35 128.24"/>
            </g>
            <path class="cls-7" d="m152.45,207.71c-.33-.37,7.26,8.67,16.4,14.11,5.63,3.35,10.33,5.08,13.62,6.3,5.62,2.08,15.83,5.15,20.6,5.28.33,0,1.09.19,1.66.81,1.69,1.84,1.16,6.21,1.06,10.17-.21,8.85.04,10.21.09,10.38.18.74,1.23.96,1.96.6,8.4-4.23,23.33-19.25,27.91-25.19.72-.94,2.68-.49,6.83-2.34,10.81-4.82,13.36-7.15,18.7-11.62,6.1-5.1,9.19-8.17,12.26-12.26,4.12-5.5,6.33-12.46,7.32-15.83,0,0,.19-.64,1.87-6.47h0c-1.4.9-3.39,2.41-5.11,4.77-2.37,3.25-2.8,6.16-3.57,8.51-1.35,4.12-4.19,6.83-9.87,12.26-8.84,8.45-17.58,12.89-19.74,13.96-11.64,5.75-21.76,7.12-25.02,7.49-5.97.68-17.94,1.9-30.98-3.06-2.15-.82-11.42-5.48-29.96-14.81-3.05-1.53-5.65-2.63-6.02-3.04Z"/>
            <path class="cls-7" d="m302.9,296.47c-.07.6-1.07,1.23-1.32.99-14.89-4-50.83-3.77-73.91,9.05-2.71,1.51-5.1,3.93-7.49,6.49-3.23.09-5.91.02-9.15.11.11-3.41-.07-5.83.04-9.24,4.38-7.37,14.41-21.16,34.8-27.89,12.44-4.11,18.67-4.69,41.24-4.4-4.37-7.24-9.37-14.85-13.74-22.09-5.71-.39-23.32,1.92-34.55,8-21.15,11.46-26.14,29.68-27.32,34.1-.06-5.71.06-9.23,0-14.93,1.35-2.97,3.1-6.55,6.86-10.83,10.6-12.06,22.18-16.12,28.12-17.96,10.36-3.21,12.13-3.36,16.85-4.19.26-.04,10.11-1.27,11.65-1.34.44-.02,1.47.04,1.82.42,10.94,17.52,18.26,30.11,19.21,32.04.21.43.64.99.38,2.17-.18.85-.65,1.18-1.31,1.12-16.05-1.59-26.37-.66-34.85.79-10.21,1.76-15.86,4.44-19.79,6.1-9.36,3.95-18.22,14.04-21.66,18.48,4.5-3.61,14.07-9.4,22.85-12.78,8.9-3.42,10.8-3.43,25.12-5.4,0,0,19.64-2,32.07.64,1.06.22,3.89.62,4.17,2.72.42,3.23.17,5.79-.09,7.83Z"/>
            <path class="cls-7" d="m211.01,313.11c-3.24-.09-5.92-.02-9.15-.11-2.4-2.56-4.78-4.98-7.49-6.49-23.09-12.82-59.02-13.05-73.91-9.05-.26.24-1.25-.39-1.33-.99-.25-2.04-.51-4.6-.08-7.83.27-2.1,3.11-2.5,4.17-2.72,12.42-2.64,32.06-.64,32.06-.64,14.32,1.97,16.23,1.98,25.13,5.4,8.78,3.38,18.35,9.17,22.85,12.78-3.45-4.44-12.3-14.53-21.66-18.48-3.94-1.66-9.59-4.34-19.8-6.1-8.47-1.45-18.8-2.38-34.85-.79-.66.06-1.12-.27-1.31-1.12-.25-1.18.17-1.74.39-2.17.95-1.93,8.26-14.52,19.21-32.04.34-.38,1.38-.44,1.82-.42,1.53.07,11.39,1.3,11.65,1.34,4.72.83,6.48.98,16.85,4.19,5.93,1.84,17.52,5.9,28.12,17.96,3.75,4.28,5.51,7.86,6.86,10.83-.06,5.7.05,9.22,0,14.93-1.19-4.42-6.17-22.64-27.32-34.1-11.24-6.08-28.84-8.39-34.56-8-4.36,7.24-9.36,14.85-13.73,22.09,22.56-.29,28.79.29,41.23,4.4,20.4,6.73,30.43,20.52,34.8,27.89.12,3.41-.07,5.83.05,9.24Z"/>
            <polygon class="cls-1" points="282.77 175.93 218.55 175.93 218.54 230.57 203.37 229.93 203.37 175.93 141.84 175.93 138.84 155.82 203.37 155.79 203.37 106.74 218.58 106.73 218.55 155.79 281.37 155.76 282.77 175.93"/>
            <g>
              <polygon class="cls-1" points="160.6 206.71 196.94 182.5 185.58 182.54 154.55 203.1 160.6 206.71"/>
              <polyline class="cls-1" points="264.57 201.39 236.19 182.54 247.59 182.54 268.83 196.63"/>
              <polyline class="cls-1" points="263.13 131.07 236.24 148.98 224.79 149.03 260.58 125.2"/>
              <path class="cls-1" d="m153.43,135.05l20.96,13.94,11.23-.02-31.26-20.72"/>
            </g>
            <g>
              <polyline class="cls-4" points="152.43 138.27 168.59 148.94 145.6 149.01"/>
              <polyline class="cls-4" points="268.1 138.95 252.93 149.01 274.09 149.03 272.39 141.48"/>
              <polyline class="cls-4" points="270.29 193.92 253.06 182.49 275.79 182.5"/>
              <polyline class="cls-4" points="145.24 182.48 168.86 182.47 149.81 195.12"/>
              <polyline class="cls-4" points="198.28 185.28 198.3 225.99 160.65 210.26"/>
              <polygon class="cls-4" points="223.55 185.35 223.54 226.76 259.77 209.31 223.55 185.35"/>
              <polyline class="cls-4" points="223.55 146.22 223.56 107.58 256.11 124.64"/>
              <polyline class="cls-4" points="198.3 146.18 198.35 107.09 164.68 123.89"/>
            </g>
            <path class="cls-5" d="m210.22,110.94c37,0,67,25.3,67,56.5s-30,56.5-67,56.5-67-25.3-67-56.5,30-56.5,67-56.5m0-8c-19.78,0-38.44,6.55-52.53,18.43-14.49,12.22-22.47,28.58-22.47,46.07s7.98,33.85,22.47,46.07c14.1,11.89,32.75,18.43,52.53,18.43s38.44-6.55,52.53-18.43c14.49-12.22,22.47-28.58,22.47-46.07s-7.98-33.85-22.47-46.07c-14.1-11.89-32.75-18.43-52.53-18.43h0Z"/>
          </g>
          <text class="cls-9" transform="translate(82.54 203.76) rotate(-80.44)"><tspan x="0" y="0">P</tspan></text>
          <text class="cls-9" transform="translate(86.12 179.08) rotate(-68.84)"><tspan x="0" y="0">A</tspan></text>
          <text class="cls-9" transform="translate(95.83 153.09) rotate(-56.54)"><tspan x="0" y="0">V</tspan></text>
          <text class="cls-9" transform="translate(112.58 128.08) rotate(-43.96)"><tspan x="0" y="0">L</tspan></text>
          <text class="cls-9" transform="translate(131.22 109.69) rotate(-31.22)"><tspan x="0" y="0">A</tspan></text>
          <text class="cls-9" transform="translate(158.4 94.2) rotate(-21.8)"><tspan x="0" y="0"> </tspan></text>
          <text class="cls-9" transform="translate(167.88 89.26) rotate(-11.6)"><tspan x="0" y="0">H</tspan></text>
          <text class="cls-9" transform="translate(201.34 82.56) rotate(2.95)"><tspan x="0" y="0">A</tspan></text>
          <text class="cls-9" transform="translate(232.1 83.4) rotate(18.66)"><tspan x="0" y="0">M</tspan></text>
          <text class="cls-9" transform="translate(269.72 96.81) rotate(34.17)"><tspan x="0" y="0">P</tspan></text>
          <text class="cls-9" transform="translate(293.85 113.06) rotate(47.43)"><tspan x="0" y="0">T</tspan></text>
          <text class="cls-9" transform="translate(313.72 134.16) rotate(60.93)"><tspan x="0" y="0">O</tspan></text>
          <text class="cls-9" transform="translate(329.7 162.84) rotate(75.5)"><tspan x="0" y="0">N</tspan></text>
        </g>
        <text class="cls-8" transform="translate(53.03 225.54) rotate(82.04) skewX(-.11)"><tspan x="0" y="0">L</tspan></text>
        <text class="cls-8" transform="translate(55.3 241.12) rotate(76.23) skewX(.04)"><tspan x="0" y="0">E</tspan></text>
        <text class="cls-8" transform="translate(59.51 257.98) rotate(69.54) skewX(.16)"><tspan x="0" y="0">K</tspan></text>
        <text class="cls-8" transform="translate(66.82 276.9) rotate(62.63) skewX(.2)"><tspan x="0" y="0">T</tspan></text>
        <text class="cls-8" transform="translate(74.89 292.53) rotate(55.32) skewX(.22)"><tspan x="0" y="0">O</tspan></text>
        <text class="cls-8" transform="translate(88.62 311.75) rotate(47.56) skewX(.24)"><tspan x="0" y="0">R</tspan></text>
        <text class="cls-8" transform="translate(101.71 325.84) rotate(40.46) skewX(.29)"><tspan x="0" y="0">K</tspan></text>
        <text class="cls-8" transform="translate(117.36 338.93) rotate(33.09) skewX(.34)"><tspan x="0" y="0">A</tspan></text>
        <text class="cls-8" transform="translate(133.45 349.06) rotate(28.31) skewX(.36)"><tspan x="0" y="0"> </tspan></text>
        <text class="cls-8" transform="translate(139.99 352.79) rotate(23.53) skewX(.36)"><tspan x="0" y="0">A</tspan></text>
        <text class="cls-8" transform="translate(159.09 360.94) rotate(15.65) skewX(.32)"><tspan x="0" y="0">N</tspan></text>
        <text class="cls-8" transform="translate(181.07 366.82) rotate(7.54) skewX(.22)"><tspan x="0" y="0">G</tspan></text>
        <text class="cls-8" transform="translate(202.14 369.29) rotate(.73) skewX(.1)"><tspan x="0" y="0">L</tspan></text>
        <text class="cls-8" transform="translate(217.48 369.28) rotate(-3.85) skewX(.03)"><tspan x="0" y="0">I</tspan></text>
        <text class="cls-8" transform="translate(227.35 368.72) rotate(-9.12)"><tspan x="0" y="0">C</tspan></text>
        <text class="cls-8" transform="translate(246.79 365.44) rotate(-16.32)"><tspan x="0" y="0">K</tspan></text>
        <text class="cls-8" transform="translate(266.13 359.52) rotate(-23.17) skewX(-.06)"><tspan x="0" y="0">É</tspan></text>
        <text class="cls-8" transform="translate(282.27 352.58) rotate(-30.52) skewX(-.19)"><tspan x="0" y="0">H</tspan></text>
        <text class="cls-8" transform="translate(301.86 340.8) rotate(-39.05) skewX(-.31)"><tspan x="0" y="0">O</tspan></text>
        <text class="cls-8" transform="translate(319.43 325.93) rotate(-44.81) skewX(-.36)"><tspan x="0" y="0"> </tspan></text>
        <text class="cls-8" transform="translate(324.62 320.83) rotate(-48.31) skewX(-.36)"><tspan x="0" y="0">J</tspan></text>
        <text class="cls-8" transform="translate(333.45 311.03) rotate(-54.27) skewX(-.35)"><tspan x="0" y="0">A</tspan></text>
        <text class="cls-8" transform="translate(345.23 294.24) rotate(-61.23) skewX(-.31)"><tspan x="0" y="0">Z</tspan></text>
        <text class="cls-8" transform="translate(353.88 278.24) rotate(-67.96) skewX(-.27)"><tspan x="0" y="0">Y</tspan></text>
        <text class="cls-8" transform="translate(361.01 260.23) rotate(-75.1) skewX(-.23)"><tspan x="0" y="0">K</tspan></text>
        <text class="cls-8" transform="translate(366.09 240.46) rotate(-82.51) skewX(-.21)"><tspan x="0" y="0">A</tspan></text>
      </g>
    </g>
  </g>
</svg>